# xmcd CD database file
#
# Track frame offsets:
#	150
#	27643
#	52505
#	71217
#	93016
#	129154
#	162551
#	184506
#
# Disc length: 2844 seconds
#
# Revision: 0
# Processed by: cddbd v1.5.2PL0 Copyright (c) Steve Scherf et al.
# Submitted via: CDex 1.70beta2
#
DISCID=5f0b1a08
DTITLE=Gary Sivils - You Must Believe In Music
DYEAR=1996
DGENRE=Jazz
TTITLE0=You Must Believe In Spring
TTITLE1=Mr. Bojangles
TTITLE2=Old Country
TTITLE3=To Young To Go Steady
TTITLE4=Manha De Carnaval
TTITLE5=You Don't Know What Love Is
TTITLE6=Blue Garu
TTITLE7=Baby Won't You Please Come Home
EXTD=YEAR: 1996
EXTT0=
EXTT1=
EXTT2=
EXTT3=
EXTT4=
EXTT5=
EXTT6=
EXTT7=
PLAYORDER=
